<svg width="329" height="48" viewBox="0 0 329 48" fill="none" xmlns="http://www.w3.org/2000/svg">
<rect width="329" height="48" rx="6" fill="white"/>
<path d="M20.696 29.16C19.88 29.16 19.1813 29.032 18.6 28.776C18.024 28.5147 17.5813 28.1227 17.272 27.6C16.9627 27.0773 16.808 26.4267 16.808 25.648C16.808 25.5413 16.808 25.4507 16.808 25.376C16.808 25.3013 16.808 25.2107 16.808 25.104H18.176C18.176 25.2053 18.176 25.2907 18.176 25.36C18.176 25.4293 18.176 25.5173 18.176 25.624C18.176 26.44 18.3893 27.0293 18.816 27.392C19.2427 27.7493 19.864 27.928 20.68 27.928C21.5227 27.928 22.16 27.784 22.592 27.496C23.024 27.208 23.24 26.7413 23.24 26.096C23.24 25.6427 23.1147 25.2667 22.864 24.968C22.6187 24.664 22.2773 24.408 21.84 24.2C21.4027 23.9867 20.8933 23.792 20.312 23.616C19.656 23.4133 19.0693 23.1573 18.552 22.848C18.04 22.5387 17.6347 22.1573 17.336 21.704C17.0427 21.2453 16.896 20.688 16.896 20.032C16.896 19.392 17.0507 18.8507 17.36 18.408C17.6747 17.9653 18.112 17.6293 18.672 17.4C19.232 17.1707 19.8827 17.056 20.624 17.056C21.408 17.056 22.088 17.1787 22.664 17.424C23.2453 17.664 23.6933 18.032 24.008 18.528C24.328 19.0187 24.488 19.6373 24.488 20.384C24.488 20.5013 24.488 20.6027 24.488 20.688C24.488 20.768 24.488 20.8667 24.488 20.984H23.12C23.12 20.8827 23.12 20.792 23.12 20.712C23.12 20.632 23.12 20.5413 23.12 20.44C23.12 19.6613 22.9093 19.1093 22.488 18.784C22.0667 18.4533 21.4533 18.288 20.648 18.288C19.8747 18.288 19.2773 18.424 18.856 18.696C18.4347 18.968 18.224 19.4133 18.224 20.032C18.224 20.496 18.352 20.88 18.608 21.184C18.8693 21.4827 19.224 21.7387 19.672 21.952C20.12 22.16 20.632 22.36 21.208 22.552C21.9067 22.7813 22.5067 23.0427 23.008 23.336C23.5147 23.624 23.9013 23.984 24.168 24.416C24.44 24.848 24.576 25.392 24.576 26.048C24.576 26.704 24.4187 27.264 24.104 27.728C23.7947 28.192 23.3493 28.5467 22.768 28.792C22.192 29.0373 21.5013 29.16 20.696 29.16ZM32.7026 29V25.84C32.7026 25.6907 32.7026 25.5147 32.7026 25.312C32.7026 25.104 32.7026 24.896 32.7026 24.688C32.7026 24.4747 32.7026 24.2933 32.7026 24.144C32.7026 23.328 32.5266 22.712 32.1746 22.296C31.828 21.88 31.276 21.672 30.5186 21.672C30.012 21.672 29.5666 21.7707 29.1826 21.968C28.804 22.1653 28.508 22.4347 28.2946 22.776C28.0813 23.1173 27.9746 23.504 27.9746 23.936L27.1106 23.672C27.1106 23.064 27.268 22.512 27.5826 22.016C27.9026 21.5147 28.3373 21.1173 28.8866 20.824C29.4413 20.5253 30.068 20.376 30.7666 20.376C31.7853 20.376 32.588 20.6827 33.1746 21.296C33.7666 21.9093 34.0626 22.7573 34.0626 23.84C34.0626 24.1227 34.0626 24.448 34.0626 24.816C34.0626 25.184 34.0626 25.5707 34.0626 25.976V29H32.7026ZM26.6146 29V16.496H27.9746V29H26.6146ZM40.4511 29.152C39.5978 29.152 38.8431 28.9627 38.1871 28.584C37.5365 28.2 37.0245 27.6773 36.6511 27.016C36.2831 26.3493 36.0991 25.592 36.0991 24.744C36.0991 23.896 36.2831 23.144 36.6511 22.488C37.0245 21.832 37.5365 21.3173 38.1871 20.944C38.8431 20.5707 39.5978 20.384 40.4511 20.384C41.3045 20.384 42.0565 20.5707 42.7071 20.944C43.3631 21.3173 43.8751 21.832 44.2431 22.488C44.6165 23.144 44.8031 23.896 44.8031 24.744C44.8031 25.592 44.6165 26.3493 44.2431 27.016C43.8751 27.6773 43.3631 28.2 42.7071 28.584C42.0565 28.9627 41.3045 29.152 40.4511 29.152ZM40.4511 27.904C41.0378 27.904 41.5551 27.7733 42.0031 27.512C42.4511 27.2507 42.8005 26.8827 43.0511 26.408C43.3071 25.9333 43.4351 25.3787 43.4351 24.744C43.4351 24.1093 43.3071 23.56 43.0511 23.096C42.8005 22.6267 42.4511 22.2667 42.0031 22.016C41.5551 21.76 41.0378 21.632 40.4511 21.632C39.8698 21.632 39.3525 21.76 38.8991 22.016C38.4511 22.2667 38.0991 22.6267 37.8431 23.096C37.5925 23.56 37.4671 24.1093 37.4671 24.744C37.4671 25.3787 37.5925 25.9333 37.8431 26.408C38.0991 26.8827 38.4511 27.2507 38.8991 27.512C39.3525 27.7733 39.8698 27.904 40.4511 27.904ZM53.5328 29L51.1568 20.504H52.3648L54.6128 28.4H54.3648L55.8528 20.504H57.2688L55.4368 29H53.5328ZM47.7888 29L45.9408 20.504H47.3568L48.8608 28.4H48.6128L50.8368 20.504H52.0448L49.7008 29H47.7888ZM62.374 29L65.622 17.168H67.75L70.974 29H69.566L66.678 18.056H66.694L63.782 29H62.374ZM64.054 25.872V24.672H69.318V25.872H64.054ZM74.2818 16.496V29H72.9378V16.496H74.2818ZM78.2349 16.496V29H76.8909V16.496H78.2349Z" fill="#391400" fill-opacity="0.64"/>
<path d="M308 27L313 21H303L308 27Z" fill="#EF6D58"/>
</svg>
